<svg width="332" height="65" viewBox="0 0 332 65" fill="none" xmlns="http://www.w3.org/2000/svg">
<path d="M326.14 47.866C325.636 48.37 324.898 48.748 323.926 49C322.99 49.288 321.856 49.432 320.524 49.432C319.192 49.432 317.932 49.234 316.744 48.838C315.556 48.442 314.584 47.488 313.828 45.976L308.482 35.068C307.942 33.952 307.456 32.908 307.024 31.936C306.592 30.928 306.124 29.776 305.62 28.48L305.296 28.534C305.44 30.478 305.512 32.458 305.512 34.474C305.548 36.49 305.566 38.47 305.566 40.414V48.784C305.17 48.892 304.558 49 303.73 49.108C302.938 49.216 302.146 49.27 301.354 49.27C300.562 49.27 299.86 49.216 299.248 49.108C298.636 49 298.132 48.784 297.736 48.46C297.34 48.136 297.034 47.704 296.818 47.164C296.602 46.588 296.494 45.85 296.494 44.95V17.95C296.998 17.23 297.772 16.69 298.816 16.33C299.86 15.97 300.976 15.79 302.164 15.79C303.496 15.79 304.756 16.006 305.944 16.438C307.168 16.834 308.14 17.77 308.86 19.246L314.26 30.154C314.8 31.27 315.286 32.332 315.718 33.34C316.15 34.312 316.618 35.446 317.122 36.742L317.392 36.688C317.248 34.744 317.158 32.8 317.122 30.856C317.086 28.912 317.068 26.968 317.068 25.024V16.276C317.464 16.168 318.058 16.06 318.85 15.952C319.678 15.844 320.488 15.79 321.28 15.79C322.864 15.79 324.07 16.078 324.898 16.654C325.726 17.194 326.14 18.346 326.14 20.11V47.866Z" fill="#F9FAFB"/>
<path d="M267.91 21.2984C267.91 19.7504 268.36 18.5264 269.26 17.6264C270.16 16.7264 271.384 16.2764 272.932 16.2764H290.752C291.004 16.6724 291.22 17.1944 291.4 17.8424C291.616 18.4904 291.724 19.1744 291.724 19.8944C291.724 21.2624 291.418 22.2344 290.806 22.8104C290.23 23.3864 289.456 23.6744 288.484 23.6744H277.09V28.6964H289.24C289.492 29.0924 289.708 29.6144 289.888 30.2624C290.104 30.8744 290.212 31.5404 290.212 32.2604C290.212 33.6284 289.924 34.6004 289.348 35.1764C288.772 35.7524 287.998 36.0404 287.026 36.0404H277.09V41.7104H290.968C291.22 42.1064 291.436 42.6284 291.616 43.2764C291.832 43.9244 291.94 44.6084 291.94 45.3284C291.94 46.6964 291.634 47.6864 291.022 48.2984C290.446 48.8744 289.672 49.1624 288.7 49.1624H272.932C271.384 49.1624 270.16 48.7124 269.26 47.8124C268.36 46.9124 267.91 45.6884 267.91 44.1404V21.2984Z" fill="#F9FAFB"/>
<path d="M250.816 23.8363H237.532C237.28 23.4403 237.046 22.9003 236.83 22.2163C236.614 21.5323 236.506 20.8123 236.506 20.0563C236.506 18.6523 236.812 17.6443 237.424 17.0323C238.072 16.4203 238.9 16.1143 239.908 16.1143H260.05C261.634 17.4103 262.426 19.1383 262.426 21.2983C262.426 22.1983 262.21 23.0983 261.778 23.9983C261.382 24.8623 260.86 25.6903 260.212 26.4823L247.954 41.2783H261.778C262.03 41.6743 262.264 42.2143 262.48 42.8983C262.696 43.5823 262.804 44.3023 262.804 45.0583C262.804 46.4623 262.48 47.4703 261.832 48.0823C261.22 48.6943 260.41 49.0003 259.402 49.0003H238.126C237.514 48.4963 237.01 47.8123 236.614 46.9483C236.218 46.0843 236.02 45.0943 236.02 43.9783C236.02 43.0783 236.254 42.1603 236.722 41.2243C237.19 40.2883 237.748 39.4243 238.396 38.6323L250.816 23.8363Z" fill="#F9FAFB"/>
<path d="M197.844 32.584C197.844 29.776 198.276 27.292 199.14 25.132C200.04 22.972 201.246 21.172 202.758 19.732C204.306 18.256 206.106 17.14 208.158 16.384C210.246 15.628 212.496 15.25 214.908 15.25C217.32 15.25 219.552 15.628 221.604 16.384C223.692 17.14 225.51 18.256 227.058 19.732C228.606 21.172 229.812 22.972 230.676 25.132C231.576 27.292 232.026 29.776 232.026 32.584C232.026 35.392 231.594 37.894 230.73 40.09C229.866 42.25 228.66 44.068 227.112 45.544C225.6 46.984 223.8 48.082 221.712 48.838C219.624 49.594 217.356 49.972 214.908 49.972C212.46 49.972 210.192 49.594 208.104 48.838C206.016 48.046 204.216 46.912 202.704 45.436C201.192 43.96 200.004 42.142 199.14 39.982C198.276 37.822 197.844 35.356 197.844 32.584ZM207.564 32.584C207.564 35.86 208.23 38.308 209.562 39.928C210.894 41.548 212.676 42.358 214.908 42.358C217.176 42.358 218.976 41.548 220.308 39.928C221.64 38.308 222.306 35.86 222.306 32.584C222.306 29.344 221.64 26.914 220.308 25.294C219.012 23.674 217.23 22.864 214.962 22.864C212.73 22.864 210.93 23.674 209.562 25.294C208.23 26.878 207.564 29.308 207.564 32.584Z" fill="#F9FAFB"/>
<path d="M193.459 47.866C192.955 48.37 192.216 48.748 191.244 49C190.309 49.288 189.175 49.432 187.843 49.432C186.511 49.432 185.25 49.234 184.062 48.838C182.874 48.442 181.902 47.488 181.146 45.976L175.8 35.068C175.26 33.952 174.774 32.908 174.342 31.936C173.91 30.928 173.442 29.776 172.938 28.48L172.615 28.534C172.759 30.478 172.83 32.458 172.83 34.474C172.866 36.49 172.884 38.47 172.884 40.414V48.784C172.488 48.892 171.877 49 171.049 49.108C170.256 49.216 169.465 49.27 168.673 49.27C167.881 49.27 167.178 49.216 166.566 49.108C165.954 49 165.45 48.784 165.054 48.46C164.658 48.136 164.352 47.704 164.136 47.164C163.92 46.588 163.812 45.85 163.812 44.95V17.95C164.316 17.23 165.09 16.69 166.134 16.33C167.178 15.97 168.294 15.79 169.482 15.79C170.814 15.79 172.074 16.006 173.262 16.438C174.486 16.834 175.458 17.77 176.178 19.246L181.578 30.154C182.118 31.27 182.604 32.332 183.036 33.34C183.468 34.312 183.936 35.446 184.44 36.742L184.711 36.688C184.567 34.744 184.476 32.8 184.44 30.856C184.404 28.912 184.386 26.968 184.386 25.024V16.276C184.782 16.168 185.377 16.06 186.169 15.952C186.997 15.844 187.807 15.79 188.599 15.79C190.183 15.79 191.388 16.078 192.216 16.654C193.044 17.194 193.459 18.346 193.459 20.11V47.866Z" fill="#F9FAFB"/>
<path d="M125.225 32.584C125.225 29.776 125.657 27.292 126.521 25.132C127.421 22.972 128.627 21.172 130.139 19.732C131.687 18.256 133.487 17.14 135.539 16.384C137.627 15.628 139.877 15.25 142.289 15.25C144.701 15.25 146.933 15.628 148.985 16.384C151.073 17.14 152.891 18.256 154.439 19.732C155.987 21.172 157.193 22.972 158.057 25.132C158.957 27.292 159.407 29.776 159.407 32.584C159.407 35.392 158.975 37.894 158.111 40.09C157.247 42.25 156.041 44.068 154.493 45.544C152.981 46.984 151.181 48.082 149.093 48.838C147.005 49.594 144.737 49.972 142.289 49.972C139.841 49.972 137.573 49.594 135.485 48.838C133.397 48.046 131.597 46.912 130.085 45.436C128.573 43.96 127.385 42.142 126.521 39.982C125.657 37.822 125.225 35.356 125.225 32.584ZM134.945 32.584C134.945 35.86 135.611 38.308 136.943 39.928C138.275 41.548 140.057 42.358 142.289 42.358C144.557 42.358 146.357 41.548 147.689 39.928C149.021 38.308 149.687 35.86 149.687 32.584C149.687 29.344 149.021 26.914 147.689 25.294C146.393 23.674 144.611 22.864 142.343 22.864C140.111 22.864 138.311 23.674 136.943 25.294C135.611 26.878 134.945 29.308 134.945 32.584Z" fill="#F9FAFB"/>
<path d="M104.755 38.4164V48.7844C104.359 48.8924 103.729 49.0004 102.865 49.1084C102.037 49.2164 101.209 49.2704 100.381 49.2704C99.5534 49.2704 98.8154 49.1984 98.1674 49.0544C97.5554 48.9464 97.0334 48.7304 96.6014 48.4064C96.2054 48.0824 95.8994 47.6324 95.6834 47.0564C95.4674 46.4804 95.3594 45.7244 95.3594 44.7884V19.3544C95.3594 18.5984 95.5574 18.0224 95.9534 17.6264C96.3854 17.1944 96.9614 16.8524 97.6814 16.6004C98.9054 16.1684 100.327 15.8624 101.947 15.6824C103.567 15.4664 105.295 15.3584 107.131 15.3584C112.099 15.3584 115.843 16.4024 118.363 18.4904C120.883 20.5784 122.143 23.4044 122.143 26.9684C122.143 29.2004 121.567 31.1084 120.415 32.6924C119.263 34.2764 117.895 35.5004 116.311 36.3644C117.607 38.1284 118.885 39.7844 120.145 41.3324C121.405 42.8804 122.395 44.2844 123.115 45.5444C122.755 46.8044 122.089 47.7764 121.117 48.4604C120.181 49.1084 119.119 49.4324 117.931 49.4324C117.139 49.4324 116.455 49.3424 115.879 49.1624C115.303 48.9824 114.799 48.7304 114.367 48.4064C113.935 48.0824 113.539 47.6864 113.179 47.2184C112.819 46.7504 112.477 46.2464 112.153 45.7064L107.617 38.4164H104.755ZM108.157 31.2344C109.525 31.2344 110.605 30.8924 111.397 30.2084C112.189 29.4884 112.585 28.4444 112.585 27.0764C112.585 25.7084 112.135 24.6824 111.235 23.9984C110.371 23.2784 108.985 22.9184 107.077 22.9184C106.537 22.9184 106.105 22.9364 105.781 22.9724C105.457 23.0084 105.097 23.0624 104.701 23.1344V31.2344H108.157Z" fill="#F9FAFB"/>
<path d="M81.1966 22.864C78.4246 22.864 76.3006 23.71 74.8246 25.402C73.3486 27.094 72.6106 29.488 72.6106 32.584C72.6106 35.716 73.4206 38.128 75.0406 39.82C76.6966 41.512 78.9106 42.358 81.6826 42.358C83.1586 42.358 84.4006 42.16 85.4086 41.764C86.4526 41.368 87.4426 40.918 88.3786 40.414C88.9906 40.918 89.4586 41.53 89.7826 42.25C90.1426 42.934 90.3226 43.744 90.3226 44.68C90.3226 46.156 89.4946 47.416 87.8386 48.46C86.2186 49.468 83.7346 49.972 80.3866 49.972C77.9746 49.972 75.7066 49.63 73.5826 48.946C71.4586 48.262 69.6046 47.218 68.0206 45.814C66.4366 44.374 65.1766 42.574 64.2406 40.414C63.3406 38.218 62.8906 35.608 62.8906 32.584C62.8906 29.776 63.3226 27.31 64.1866 25.186C65.0866 23.026 66.2926 21.208 67.8046 19.732C69.3526 18.256 71.1526 17.14 73.2046 16.384C75.2566 15.628 77.4526 15.25 79.7926 15.25C83.1046 15.25 85.6606 15.79 87.4606 16.87C89.2966 17.95 90.2146 19.336 90.2146 21.028C90.2146 21.964 89.9806 22.774 89.5126 23.458C89.0446 24.142 88.5046 24.682 87.8926 25.078C86.9566 24.466 85.9486 23.944 84.8686 23.512C83.8246 23.08 82.6006 22.864 81.1966 22.864Z" fill="#F9FAFB"/>
<path d="M13.0192 14.7483C16.4695 3.40396 32.5305 3.40394 35.9808 14.7483L45.3361 45.5082C47.6806 53.217 41.9127 61 33.8553 61H15.1447C7.08731 61 1.31938 53.217 3.66391 45.5082L13.0192 14.7483Z" fill="#00B8D9"/>
</svg>
